# xmcd
#
# Track frame offsets: 
#        150
#        23400
#        50560
#        77438
#        99000
#        120450
#        142088
#        166163
#        200655
#        238725
#
# Disc length: 3466 seconds
#
# Revision: 0
# Processed by: cddbd v1.5.1PL2 Copyright (c) Steve Scherf et al.
# Submitted via: ExactAudioCopy v0.95a5
#
DISCID=750d880a
DTITLE=Various Artist - dope technix
DYEAR=1995
DGENRE=techno
TTITLE0=gana/mole hill
TTITLE1=Lazer/tenkey
TTITLE2=anarchic autonomy/clesta
TTITLE3=cama habicion/impetus
TTITLE4=hexacoscopie/hexacoscopie
TTITLE5=sleepmen/g-oro
TTITLE6=anarchic autonomy/needle
TTITLE7=full-tin circus/wogo
TTITLE8=niponjin/filmo
TTITLE9=nicros/cyborgman
EXTD=
EXTT0=
EXTT1=
EXTT2=
EXTT3=
EXTT4=
EXTT5=
EXTT6=
EXTT7=
EXTT8=
EXTT9=
PLAYORDER=
